<mxfile host="Electron" modified="2024-05-11T15:25:46.701Z" agent="Mozilla/5.0 (Windows NT 10.0; Win64; x64) AppleWebKit/537.36 (KHTML, like Gecko) draw.io/24.2.5 Chrome/120.0.6099.109 Electron/28.1.0 Safari/537.36" etag="19IacpUrNhO-EuQ0h7-S" version="24.2.5" type="device">
  <diagram name="Page-1" id="2YBvvXClWsGukQMizWep">
    <mxGraphModel dx="1384" dy="826" grid="1" gridSize="10" guides="1" tooltips="1" connect="1" arrows="1" fold="1" page="1" pageScale="1" pageWidth="850" pageHeight="1100" math="0" shadow="0">
      <root>
        <mxCell id="0" />
        <mxCell id="1" parent="0" />
        <mxCell id="aM9ryv3xv72pqoxQDRHE-5" value="FTTI 앱" style="shape=umlLifeline;perimeter=lifelinePerimeter;whiteSpace=wrap;html=1;container=0;dropTarget=0;collapsible=0;recursiveResize=0;outlineConnect=0;portConstraint=eastwest;newEdgeStyle={&quot;edgeStyle&quot;:&quot;elbowEdgeStyle&quot;,&quot;elbow&quot;:&quot;vertical&quot;,&quot;curved&quot;:0,&quot;rounded&quot;:0};" parent="1" vertex="1">
          <mxGeometry x="220" y="40" width="100" height="1040" as="geometry" />
        </mxCell>
        <mxCell id="5FrMyTS5TLA5ni1Q-pz3-14" value="" style="html=1;points=[[0,0,0,0,5],[0,1,0,0,-5],[1,0,0,0,5],[1,1,0,0,-5]];perimeter=orthogonalPerimeter;outlineConnect=0;targetShapes=umlLifeline;portConstraint=eastwest;newEdgeStyle={&quot;curved&quot;:0,&quot;rounded&quot;:0};" parent="aM9ryv3xv72pqoxQDRHE-5" vertex="1">
          <mxGeometry x="45" y="80" width="10" height="130" as="geometry" />
        </mxCell>
        <mxCell id="T5g5gJWNDuK_DlN2X4e8-2" value="" style="html=1;points=[[0,0,0,0,5],[0,1,0,0,-5],[1,0,0,0,5],[1,1,0,0,-5]];perimeter=orthogonalPerimeter;outlineConnect=0;targetShapes=umlLifeline;portConstraint=eastwest;newEdgeStyle={&quot;curved&quot;:0,&quot;rounded&quot;:0};" vertex="1" parent="aM9ryv3xv72pqoxQDRHE-5">
          <mxGeometry x="45" y="600" width="10" height="70" as="geometry" />
        </mxCell>
        <mxCell id="T5g5gJWNDuK_DlN2X4e8-5" value="" style="html=1;points=[[0,0,0,0,5],[0,1,0,0,-5],[1,0,0,0,5],[1,1,0,0,-5]];perimeter=orthogonalPerimeter;outlineConnect=0;targetShapes=umlLifeline;portConstraint=eastwest;newEdgeStyle={&quot;curved&quot;:0,&quot;rounded&quot;:0};" vertex="1" parent="aM9ryv3xv72pqoxQDRHE-5">
          <mxGeometry x="45" y="720" width="10" height="70" as="geometry" />
        </mxCell>
        <mxCell id="T5g5gJWNDuK_DlN2X4e8-4" value="FTTI 코드 부여" style="html=1;verticalAlign=bottom;endArrow=open;dashed=1;endSize=8;curved=0;rounded=0;exitX=0;exitY=1;exitDx=0;exitDy=-5;" edge="1" source="T5g5gJWNDuK_DlN2X4e8-2" parent="aM9ryv3xv72pqoxQDRHE-5">
          <mxGeometry relative="1" as="geometry">
            <mxPoint x="-130.5" y="665" as="targetPoint" />
          </mxGeometry>
        </mxCell>
        <mxCell id="T5g5gJWNDuK_DlN2X4e8-3" value="선호 사진 선택" style="html=1;verticalAlign=bottom;endArrow=block;curved=0;rounded=0;entryX=0;entryY=0;entryDx=0;entryDy=5;" edge="1" target="T5g5gJWNDuK_DlN2X4e8-2" parent="aM9ryv3xv72pqoxQDRHE-5">
          <mxGeometry relative="1" as="geometry">
            <mxPoint x="-130.5" y="605" as="sourcePoint" />
          </mxGeometry>
        </mxCell>
        <mxCell id="T5g5gJWNDuK_DlN2X4e8-6" value="추천 사진 선택" style="html=1;verticalAlign=bottom;endArrow=block;curved=0;rounded=0;entryX=0;entryY=0;entryDx=0;entryDy=5;" edge="1" target="T5g5gJWNDuK_DlN2X4e8-5" parent="aM9ryv3xv72pqoxQDRHE-5">
          <mxGeometry relative="1" as="geometry">
            <mxPoint x="-130.5" y="725" as="sourcePoint" />
          </mxGeometry>
        </mxCell>
        <mxCell id="T5g5gJWNDuK_DlN2X4e8-7" value="쇼핑몰 페이지" style="html=1;verticalAlign=bottom;endArrow=open;dashed=1;endSize=8;curved=0;rounded=0;exitX=0;exitY=1;exitDx=0;exitDy=-5;" edge="1" source="T5g5gJWNDuK_DlN2X4e8-5" parent="aM9ryv3xv72pqoxQDRHE-5">
          <mxGeometry relative="1" as="geometry">
            <mxPoint x="-130.5" y="785" as="targetPoint" />
          </mxGeometry>
        </mxCell>
        <mxCell id="5FrMyTS5TLA5ni1Q-pz3-15" value="로그인" style="html=1;verticalAlign=bottom;endArrow=block;curved=0;rounded=0;entryX=0;entryY=0;entryDx=0;entryDy=5;fontSize=12;startSize=8;endSize=8;" parent="1" target="5FrMyTS5TLA5ni1Q-pz3-14" edge="1" source="T5g5gJWNDuK_DlN2X4e8-1">
          <mxGeometry relative="1" as="geometry">
            <mxPoint x="89.5" y="145" as="sourcePoint" />
          </mxGeometry>
        </mxCell>
        <mxCell id="5FrMyTS5TLA5ni1Q-pz3-16" value="회원정보 페이지" style="html=1;verticalAlign=bottom;endArrow=open;dashed=1;endSize=8;curved=0;rounded=0;exitX=0;exitY=1;exitDx=0;exitDy=-5;fontSize=12;" parent="1" source="5FrMyTS5TLA5ni1Q-pz3-14" edge="1" target="T5g5gJWNDuK_DlN2X4e8-1">
          <mxGeometry x="0.0014" relative="1" as="geometry">
            <mxPoint x="89.5" y="205" as="targetPoint" />
            <mxPoint as="offset" />
          </mxGeometry>
        </mxCell>
        <mxCell id="T5g5gJWNDuK_DlN2X4e8-1" value="" style="shape=umlLifeline;perimeter=lifelinePerimeter;whiteSpace=wrap;html=1;container=1;dropTarget=0;collapsible=0;recursiveResize=0;outlineConnect=0;portConstraint=eastwest;newEdgeStyle={&quot;curved&quot;:0,&quot;rounded&quot;:0};participant=umlActor;size=40;" vertex="1" parent="1">
          <mxGeometry x="80" y="40" width="20" height="1040" as="geometry" />
        </mxCell>
        <mxCell id="T5g5gJWNDuK_DlN2X4e8-10" value="Interaction heading" style="shape=umlFrame;whiteSpace=wrap;html=1;pointerEvents=0;recursiveResize=0;container=1;collapsible=0;width=170;" vertex="1" parent="1">
          <mxGeometry x="40" y="160" width="290" height="320" as="geometry" />
        </mxCell>
        <mxCell id="T5g5gJWNDuK_DlN2X4e8-11" value="[constraint1]" style="text;html=1;" vertex="1" parent="T5g5gJWNDuK_DlN2X4e8-10">
          <mxGeometry width="100" height="20" relative="1" as="geometry">
            <mxPoint x="20" y="40" as="offset" />
          </mxGeometry>
        </mxCell>
        <mxCell id="T5g5gJWNDuK_DlN2X4e8-12" value="[constraint2]" style="line;strokeWidth=1;dashed=1;labelPosition=center;verticalLabelPosition=bottom;align=left;verticalAlign=top;spacingLeft=20;spacingTop=15;html=1;whiteSpace=wrap;" vertex="1" parent="T5g5gJWNDuK_DlN2X4e8-10">
          <mxGeometry y="125" width="290" height="10" as="geometry" />
        </mxCell>
      </root>
    </mxGraphModel>
  </diagram>
</mxfile>
